<?xml version="1.0" ?><!DOCTYPE svg  PUBLIC '-//W3C//DTD SVG 1.1//EN'  'http://www.w3.org/Graphics/SVG/1.1/DTD/svg11.dtd'><svg height="48px" id="Слой_1" style="enable-background:new 0 0 48 48;" version="1.1" viewBox="0 0 48 48" width="48px" xml:space="preserve" xmlns="http://www.w3.org/2000/svg" xmlns:xlink="http://www.w3.org/1999/xlink"><g><g><path d="M25,2h4V0h-4c-2.2,0-4,1.8-4,4v18c0,2.2,1.8,4,4,4s4-1.8,4-4c0-2.2-1.8-4-4-4     c-0.7,0-1.4,0.2-2,0.6V4C23,2.9,23.9,2,25,2z" style="fill:#7D50F9;"/><path d="M38,9H23v2h15c1.1,0,2,0.9,2,2v18c0,1.1-0.9,2-2,2H20c-1.1,0-2-0.9-2-2V15c0-3.3-2.7-6-6-6     s-6,2.7-6,6v16c0,2.2,1.8,4,4,4h2v-2h-2c-1.1,0-2-0.9-2-2V15c0-2.2,1.8-4,4-4s4,1.8,4,4v16c0,2.2,1.8,4,4,4h1v11h-9v2h28v-2h-9     V35h7c2.2,0,4-1.8,4-4V13C42,10.8,40.2,9,38,9z M29,46h-6V35h2v6h2v-6h2V46z" style="fill:#303033;"/></g></g></svg>